# xmcd CD database file
#
# Track frame offsets:
#	150
#	15952
#	29920
#	47320
#	65525
#
# Disc length: 1051 seconds
#
# Revision: 0
# Processed by: cddbd v1.5.2PL0 Copyright (c) Steve Scherf et al.
# Submitted via: CDex 1.70beta2
#
DISCID=36041905
DTITLE=The Juleps - Just Enough Rope
DYEAR=2001
DGENRE=Country
TTITLE0=Just Enough Rope
TTITLE1=You Gotta Wannit
TTITLE2=The Rockwell Scrap
TTITLE3=Blackwater Pine
TTITLE4=A Little Less Talk
EXTD=YEAR: 2001
EXTT0=
EXTT1=
EXTT2=
EXTT3=
EXTT4=
PLAYORDER=
